<?xml version="1.0" encoding="utf-8"?>
<!-- Generator: Adobe Illustrator 25.2.0, SVG Export Plug-In . SVG Version: 6.00 Build 0)  -->
<svg version="1.1"
	 id="svg6336" xmlns:cc="http://creativecommons.org/ns#" xmlns:dc="http://purl.org/dc/elements/1.1/" xmlns:rdf="http://www.w3.org/1999/02/22-rdf-syntax-ns#" xmlns:svg="http://www.w3.org/2000/svg"
	 xmlns="http://www.w3.org/2000/svg" xmlns:xlink="http://www.w3.org/1999/xlink" x="0px" y="0px" viewBox="0 0 595.3 595.3"
	 style="enable-background:new 0 0 595.3 595.3;" xml:space="preserve">
<g>
	<path d="M584.1,230c-26,20.2-60.3,45.9-178.6,131.8c-23.5,17.2-65.6,55.5-107,55.2c-41.2,0.2-82.4-37.3-106.9-55.2
		C73.3,276,38.8,250.3,12.8,230.1c-4.6-3.6-11.2-0.3-11.2,5.4v237c0,30.7,24.9,55.7,55.7,55.7h482.4c30.7,0,55.7-24.9,55.7-55.7
		V235.5C595.4,229.8,588.6,226.4,584.1,230z"/>
	<circle cx="434.6" cy="187.6" r="21"/>
	<path d="M539.6,83H57.3c-30.7,0-55.7,24.9-55.7,55.7v22c0,8.6,3.9,16.6,10.7,21.9c35.5,27.7,47.2,37.6,201.1,149.2
		c19.5,14.1,58.2,48.5,85.1,48c26.9,0.5,65.6-33.9,85.1-48c153.9-111.7,165.6-121.4,201.1-149.2c6.7-5.2,10.7-13.3,10.7-21.9v-22
		C595.4,107.9,570.5,83,539.6,83z M386.3,267.6c-33.2,0-61.6-20.2-73.7-48.9l-10.8-0.2l-10.1,0.2h-10.6L262.7,207l-11.4,11.7h-14
		l-13.6-15.1l-21.5,15.1h-13.1l-11.4-8.1l-13.1,8.1h-21.2L108,189.1l35.5-29.6h168c11.4-30.4,40.6-51.9,74.9-51.9
		c44.2,0,80,35.8,80,80S430.5,267.6,386.3,267.6z"/>
</g>
</svg>
