<?xml version="1.0" encoding="utf-8"?>
<!-- Generator: Adobe Illustrator 25.2.0, SVG Export Plug-In . SVG Version: 6.00 Build 0)  -->
<svg version="1.1"
	 id="svg4" focusable="false" inkscape:version="1.0.1 (3bc2e813f5, 2020-09-07)" xmlns:cc="http://creativecommons.org/ns#" xmlns:dc="http://purl.org/dc/elements/1.1/" xmlns:inkscape="http://www.inkscape.org/namespaces/inkscape" xmlns:rdf="http://www.w3.org/1999/02/22-rdf-syntax-ns#" xmlns:sodipodi="http://sodipodi.sourceforge.net/DTD/sodipodi-0.dtd" xmlns:svg="http://www.w3.org/2000/svg"
	 xmlns="http://www.w3.org/2000/svg" xmlns:xlink="http://www.w3.org/1999/xlink" x="0px" y="0px" viewBox="0 0 576 512"
	 style="enable-background:new 0 0 576 512;" xml:space="preserve">
<style type="text/css">
	.st0{opacity:0.41;fill:#73B956;stroke:#FFFFFF;stroke-width:20;stroke-miterlimit:10;}
	.st1{opacity:0.4;fill:#FFFFFF;}
	.st2{enable-background:new    ;}
	.st3{fill:#FFFFFF;}
</style>
<sodipodi:namedview  bordercolor="#666666" borderopacity="1" gridtolerance="10" guidetolerance="10" id="namedview6" inkscape:current-layer="svg4" inkscape:cx="267.56287" inkscape:cy="255.29541" inkscape:document-rotation="0" inkscape:pageopacity="0" inkscape:pageshadow="2" inkscape:window-height="925" inkscape:window-maximized="0" inkscape:window-width="1528" inkscape:window-x="576" inkscape:window-y="186" inkscape:zoom="1.4355469" objecttolerance="10" pagecolor="#ffffff" showgrid="false">
	</sodipodi:namedview>
<sodipodi:namedview  bordercolor="#666666" borderopacity="1" gridtolerance="10" guidetolerance="10" id="namedview6" inkscape:current-layer="svg4" inkscape:cx="267.56287" inkscape:cy="255.29541" inkscape:pageopacity="0" inkscape:pageshadow="2" inkscape:window-height="1017" inkscape:window-maximized="1" inkscape:window-width="1920" inkscape:window-x="1912" inkscape:window-y="-8" inkscape:zoom="1.4355469" objecttolerance="10" pagecolor="#ffffff" showgrid="false">
	</sodipodi:namedview>
<sodipodi:namedview  bordercolor="#666666" borderopacity="1" gridtolerance="10" guidetolerance="10" id="namedview6" inkscape:current-layer="svg4" inkscape:cx="458.17519" inkscape:cy="233.83215" inkscape:document-rotation="0" inkscape:pageopacity="0" inkscape:pageshadow="2" inkscape:window-height="925" inkscape:window-maximized="0" inkscape:window-width="1528" inkscape:window-x="2152" inkscape:window-y="58" inkscape:zoom="1.4355469" objecttolerance="10" pagecolor="#ffffff" showgrid="false">
	</sodipodi:namedview>
<path id="path2_1_" class="st0" d="M378,76H198C98.6,76,18,156.6,18,256s80.6,180,180,180h180c99.4,0,180-80.6,180-180
	S477.4,76,378,76z"/>
<ellipse class="st1" cx="384.5" cy="256" rx="102.5" ry="102.5"/>
<g>
	<g class="st2">
		<path class="st3" d="M87.9,293.1c-5.3-2.7-9.4-6.5-12.3-11.3c-2.9-4.9-4.3-10.6-4.3-17v-24.9c0-6.4,1.4-12.1,4.3-17
			c2.9-4.9,7-8.7,12.3-11.3c5.3-2.7,11.4-4,18.4-4c6.9,0,13.1,1.3,18.4,4c5.3,2.7,9.4,6.5,12.3,11.3c2.9,4.9,4.3,10.6,4.3,17v24.9
			c0,6.4-1.4,12.1-4.3,17c-2.9,4.9-7,8.7-12.3,11.3c-5.3,2.7-11.4,4-18.4,4C99.3,297.1,93.2,295.8,87.9,293.1z M117.1,282.5
			c3.1-1.6,5.5-3.9,7.3-6.9c1.7-3,2.6-6.5,2.6-10.4v-25.7c0-3.9-0.9-7.4-2.6-10.4c-1.7-3-4.1-5.3-7.3-6.9c-3.1-1.6-6.7-2.4-10.9-2.4
			s-7.7,0.8-10.9,2.4c-3.1,1.6-5.5,3.9-7.3,6.9c-1.7,3-2.6,6.5-2.6,10.4v25.7c0,3.9,0.9,7.4,2.6,10.4s4.1,5.3,7.3,6.9
			c3.1,1.6,6.7,2.4,10.9,2.4S114,284.2,117.1,282.5z"/>
		<path class="st3" d="M163.8,208.5h12.7l48.7,67.8l-1.6,1.6v-69.4h13.8v87.7h-12.8L176,229.3l1.6-1.6v68.4h-13.8V208.5z"/>
	</g>
</g>
</svg>
