<?xml version="1.0" encoding="utf-8"?>
<!-- Generator: Adobe Illustrator 25.2.0, SVG Export Plug-In . SVG Version: 6.00 Build 0)  -->
<svg version="1.1"
	 id="svg4" focusable="false" inkscape:version="1.0.1 (3bc2e813f5, 2020-09-07)" xmlns:cc="http://creativecommons.org/ns#" xmlns:dc="http://purl.org/dc/elements/1.1/" xmlns:inkscape="http://www.inkscape.org/namespaces/inkscape" xmlns:rdf="http://www.w3.org/1999/02/22-rdf-syntax-ns#" xmlns:sodipodi="http://sodipodi.sourceforge.net/DTD/sodipodi-0.dtd" xmlns:svg="http://www.w3.org/2000/svg"
	 xmlns="http://www.w3.org/2000/svg" xmlns:xlink="http://www.w3.org/1999/xlink" x="0px" y="0px" viewBox="0 0 576 512"
	 style="enable-background:new 0 0 576 512;" xml:space="preserve">
<style type="text/css">
	.st0{fill:#AB2F2F;stroke:#FFFFFF;stroke-width:20;stroke-miterlimit:10;}
	.st1{enable-background:new    ;}
	.st2{fill:#FFFFFF;}
</style>
<sodipodi:namedview  bordercolor="#666666" borderopacity="1" gridtolerance="10" guidetolerance="10" id="namedview6" inkscape:current-layer="svg4" inkscape:cx="458.17519" inkscape:cy="233.83215" inkscape:document-rotation="0" inkscape:pageopacity="0" inkscape:pageshadow="2" inkscape:window-height="925" inkscape:window-maximized="0" inkscape:window-width="1528" inkscape:window-x="2152" inkscape:window-y="58" inkscape:zoom="1.4355469" objecttolerance="10" pagecolor="#ffffff" showgrid="false">
	</sodipodi:namedview>
<path id="path2" class="st0" d="M198,426h180c99.4,0,180-80.6,180-180S477.4,66,378,66H198C98.6,66,18,146.6,18,246
	S98.6,426,198,426z"/>
<g>
	<g class="st1">
		<path class="st2" d="M343.6,289.2c-4-2.6-7.1-6.3-9.3-11.1c-2.2-4.8-3.3-10.3-3.3-16.6v-24.2c0-6.3,1.1-11.8,3.3-16.6
			c2.2-4.8,5.3-8.5,9.3-11.1c4-2.6,8.6-3.9,13.8-3.9s9.8,1.3,13.8,3.9c4,2.6,7.1,6.3,9.3,11.1c2.2,4.8,3.3,10.3,3.3,16.6v24.2
			c0,6.3-1.1,11.8-3.3,16.6c-2.2,4.8-5.3,8.5-9.3,11.1c-4,2.6-8.6,3.9-13.8,3.9S347.6,291.8,343.6,289.2z M365.6,278.9
			c2.4-1.6,4.2-3.8,5.5-6.8c1.3-2.9,1.9-6.3,1.9-10.2v-25.1c0-3.8-0.6-7.2-1.9-10.2c-1.3-2.9-3.1-5.2-5.5-6.8
			c-2.4-1.6-5.1-2.4-8.2-2.4s-5.8,0.8-8.2,2.4c-2.4,1.6-4.2,3.8-5.5,6.8c-1.3,2.9-1.9,6.3-1.9,10.2V262c0,3.8,0.6,7.2,1.9,10.2
			c1.3,2.9,3.1,5.2,5.5,6.8c2.4,1.6,5.1,2.4,8.2,2.4S363.3,280.5,365.6,278.9z"/>
		<path class="st2" d="M400.9,206.7h10.5v85.6h-10.5V206.7z M406,206.7h42.1v11.4H406V206.7z M406,244.8h36.4v11.4H406V244.8z"/>
		<path class="st2" d="M460,206.7h10.5v85.6H460V206.7z M465.2,206.7h42.1v11.4h-42.1V206.7z M465.2,244.8h36.4v11.4h-36.4V244.8z"
			/>
	</g>
</g>
<ellipse class="st2" cx="191.5" cy="246" rx="102.5" ry="102.5"/>
</svg>
