<?xml version="1.0" encoding="utf-8"?>
<!-- Generator: Adobe Illustrator 25.2.0, SVG Export Plug-In . SVG Version: 6.00 Build 0)  -->
<svg version="1.1"
	 id="svg6336" xmlns:cc="http://creativecommons.org/ns#" xmlns:dc="http://purl.org/dc/elements/1.1/" xmlns:rdf="http://www.w3.org/1999/02/22-rdf-syntax-ns#" xmlns:svg="http://www.w3.org/2000/svg"
	 xmlns="http://www.w3.org/2000/svg" xmlns:xlink="http://www.w3.org/1999/xlink" x="0px" y="0px" viewBox="0 0 595.3 595.3"
	 style="enable-background:new 0 0 595.3 595.3;" xml:space="preserve">
<style type="text/css">
	.st0{fill:#00247D;}
	.st1{fill:#CF142B;}
	.st2{fill:#FFFFFF;}
</style>
<g>
	<path class="st0" d="M241,25.2C173.1,39.5,114.3,78.6,74.6,132.6L241,228.7V25.2z"/>
	<path class="st0" d="M26.7,354.7c4,18.8,9.9,36.9,17.4,54.1l93.7-54.1H26.7z"/>
	<path class="st0" d="M522.4,132.7c-39.7-54-98.4-93.1-166.2-107.4v203.4L522.4,132.7z"/>
	<path class="st0" d="M44.1,185.4c-7.6,17.2-13.4,35.3-17.4,54.1h111.2L44.1,185.4z"/>
	<path class="st0" d="M570.3,239.6c-3.9-18.8-9.8-36.8-17.3-54l-93.6,54H570.3z"/>
	<path class="st0" d="M74.8,461.6c39.7,53.9,98.4,92.9,166.3,107.2V365.6L74.8,461.6z"/>
	<path class="st0" d="M552.8,408.7c7.5-17.2,13.4-35.2,17.4-54H459.4L552.8,408.7z"/>
	<path class="st0" d="M356.2,568.8c67.8-14.3,126.4-53.4,166.1-107.2l-166.1-95.9V568.8z"/>
	<path class="st1" d="M421.9,239.6l122.9-71c-3.6-7-7.6-13.8-11.8-20.4l-158.2,91.3H421.9z"/>
	<path class="st1" d="M374.8,354.7L532.9,446c4.2-6.6,8.1-13.4,11.8-20.4l-122.8-70.9H374.8z"/>
	<path class="st1" d="M175.3,354.7l-123,71c3.6,7,7.6,13.8,11.8,20.4l158.3-91.4H175.3z"/>
	<path class="st1" d="M222.4,239.6L64,148.1c-4.2,6.6-8.1,13.4-11.8,20.4l123.1,71.1H222.4z"/>
	<path class="st1" d="M389.4,258.3h-19.5c-10.3,0-21,0.1-32.4,0.1v-18.9V22c-12.7-1.8-25.7-2.7-39-2.7c-13.1,0-26.1,0.9-38.7,2.7
		v217.5v18.3c-11.9,0-19.7,0.5-32.4,0.5h-19.5h-37.5H23.4c-1.8,12.7-2.7,25.6-2.7,38.7c0,13.2,0.9,26.2,2.7,39h146.9h37.5h19.5
		c10.3,0,21.6,0.2,32.4,0.2v18.6v217.3c12.7,1.8,25.6,2.7,38.7,2.7c13.2,0,26.2-0.9,39-2.7V354.8v-18.6c0,0,20.6-0.2,32.4-0.2h19.5
		h37.5h146.6c1.8-12.7,2.7-25.7,2.7-39c0-13.1-0.9-26.1-2.7-38.7H426.9H389.4z"/>
	<path class="st2" d="M570.3,239.6H459.4l93.6-54c-2.5-5.8-5.2-11.4-8.1-17l-122.9,71h-47L533,148.2c-3.4-5.3-6.9-10.5-10.6-15.5
		l-166.2,96V25.3c-6.2-1.3-12.4-2.4-18.8-3.3v217.5v18.9c11.4,0,22.1-0.1,32.4-0.1h19.5h37.5h146.6
		C572.6,252,571.6,245.7,570.3,239.6z"/>
	<path class="st2" d="M207.8,258.3h19.5c12.8,0,20.6-0.5,32.4-0.5v-18.3V22c-6.3,0.9-12.6,2-18.8,3.3v203.4L74.6,132.6
		c-3.7,5-7.3,10.2-10.6,15.5l158.4,91.5h-47L52.2,168.5c-2.9,5.5-5.6,11.2-8.1,17l93.8,54.1H26.7c-1.3,6.2-2.4,12.4-3.3,18.8h146.9
		H207.8z"/>
	<path class="st2" d="M389.4,336h-19.5c-11.9,0-32.4,0.2-32.4,0.2v18.6V572c6.3-0.9,12.6-2,18.8-3.3V365.6l166.1,95.9
		c3.7-5,7.3-10.2,10.6-15.5l-158.1-91.3h47l122.8,70.9c2.9-5.5,5.6-11.2,8.1-16.9l-93.5-54h110.8c1.3-6.2,2.4-12.4,3.3-18.8H426.9
		H389.4z"/>
	<path class="st2" d="M259.8,336.2c-10.8,0-22.1-0.2-32.4-0.2h-19.5h-37.5H23.5c0.9,6.3,2,12.6,3.3,18.8h111.1l-93.7,54.1
		c2.5,5.8,5.3,11.4,8.2,16.9l123-71h47L64.1,446.1c3.4,5.3,6.9,10.5,10.6,15.5l166.3-96v203.2c6.2,1.3,12.4,2.4,18.8,3.3V354.8
		V336.2z"/>
</g>
</svg>
